<svg width="1200" height="850" viewBox="0 0 1200 850" xmlns="http://www.w3.org/2000/svg">
  <!-- Sidebar/Menu -->
  <rect x="0" y="0" width="72" height="850" fill="#0B5FFF"/>
  <!-- Header -->
  <rect x="72" y="0" width="1128" height="60" fill="#0956E6"/>
  <!-- LOGO area -->
  <rect x="88" y="10" width="36" height="36" rx="8" fill="#FFF"/>
  <text x="106" y="34" font-size="9" fill="#0956E6" text-anchor="middle">LOGO</text>
  <!-- Title -->
  <text x="160" y="38" font-size="20" fill="#FFF" font-family="Inter" font-weight="bold">SIGAP - Kepala Dinas</text>
  <!-- Profil/Notif -->
  <circle cx="1150" cy="30" r="18" fill="#06A657"/>
  <circle cx="1100" cy="30" r="15" fill="#FACC15"/>
  <text x="1100" y="37" font-size="15" fill="#FFF" font-family="Inter" font-weight="bold" text-anchor="middle">&#128276;</text>
  <!-- Sidebar Menu Modul -->
  <rect x="16" y="80" width="40" height="40" rx="8" fill="#f4f4f4"/>
  <text x="36" y="107" font-size="8" fill="#0956E6" text-anchor="middle">Dash</text>
  <rect x="16" y="130" width="40" height="40" rx="8" fill="#f4f4f4"/>
  <text x="36" y="157" font-size="8" fill="#06A657" text-anchor="middle">Ktrsd</text>
  <rect x="16" y="180" width="40" height="40" rx="8" fill="#f4f4f4"/>
  <text x="36" y="207" font-size="8" fill="#F59E0B" text-anchor="middle">Distr</text>
  <rect x="16" y="230" width="40" height="40" rx="8" fill="#f4f4f4"/>
  <text x="36" y="257" font-size="8" fill="#EF4444" text-anchor="middle">Konsm</text>
  <rect x="16" y="280" width="40" height="40" rx="8" fill="#f4f4f4"/>
  <text x="36" y="307" font-size="8" fill="#0B5FFF" text-anchor="middle">Agenda</text>
  <rect x="16" y="330" width="40" height="40" rx="8" fill="#f4f4f4"/>
  <text x="36" y="357" font-size="8" fill="#0B5FFF" text-anchor="middle">UPTD</text>
  <rect x="16" y="380" width="40" height="40" rx="8" fill="#f4f4f4"/>
  <text x="36" y="407" font-size="8" fill="#06A657" text-anchor="middle">Approve</text>
  <!-- Hero Row: KPI Ringkas -->
  <rect x="100" y="80" width="145" height="70" rx="12" fill="#fff" stroke="#06A657" stroke-width="2"/>
  <rect x="255" y="80" width="145" height="70" rx="12" fill="#fff" stroke="#0B5FFF" stroke-width="2"/>
  <rect x="410" y="80" width="145" height="70" rx="12" fill="#fff" stroke="#F59E0B" stroke-width="2"/>
  <rect x="565" y="80" width="145" height="70" rx="12" fill="#fff" stroke="#EF4444" stroke-width="2"/>
  <rect x="720" y="80" width="145" height="70" rx="12" fill="#fff" stroke="#233441" stroke-width="2"/>
  <rect x="875" y="80" width="145" height="70" rx="12" fill="#fff" stroke="#FACC15" stroke-width="2"/>
  <text x="172" y="115" font-size="13" fill="#06A657" font-family="Inter" text-anchor="middle">Compliance</text>
  <text x="327" y="115" font-size="13" fill="#0B5FFF" font-family="Inter" text-anchor="middle">Inflasi</text>
  <text x="482" y="115" font-size="13" fill="#F59E0B" font-family="Inter" text-anchor="middle">SPJ Terlambat</text>
  <text x="637" y="115" font-size="13" fill="#EF4444" font-family="Inter" text-anchor="middle">Komoditas</text>
  <text x="792" y="115" font-size="13" fill="#233441" font-family="Inter" text-anchor="middle">ASN Kritis</text>
  <text x="947" y="115" font-size="13" fill="#FACC15" font-family="Inter" text-anchor="middle">Early Warning</text>
  <!-- Panel Approval/Backlog -->
  <rect x="100" y="165" width="510" height="120" rx="14" fill="#fff" stroke="#06A657" stroke-width="2"/>
  <text x="355" y="185" font-size="12" fill="#06A657" text-anchor="middle">Panel Approval/Backlog</text>
  <!-- Widget Bidang -->
  <rect x="625" y="165" width="400" height="58" rx="12" fill="#fff" stroke="#0B5FFF" stroke-width="2"/>
  <text x="825" y="190" font-size="11" fill="#0B5FFF" text-anchor="middle">Monitor Bidang • Ktrsd • Dist • Konsm</text>
  <!-- Trend Chart -->
  <rect x="625" y="230" width="400" height="55" rx="12" fill="#fff" stroke="#F59E0B" stroke-width="2"/>
  <text x="825" y="260" font-size="11" fill="#F59E0B" text-anchor="middle">Trend Chart Inflasi/Keuangan</text>
  <!-- Agenda Rapat -->
  <rect x="100" y="295" width="510" height="50" rx="12" fill="#fff" stroke="#0B5FFF" stroke-width="2"/>
  <text x="355" y="325" font-size="11" fill="#0B5FFF" text-anchor="middle">Agenda / Rapat TPID</text>
  <!-- Quick Actions -->
  <rect x="100" y="360" width="930" height="50" rx="12" fill="#fff" stroke="#06A657" stroke-width="2"/>
  <text x="568" y="390" font-size="13" fill="#06A657" text-anchor="middle">Quick Actions: Laporan Bulanan • Kirim Instruksi • Export Data</text>
  <!-- Footer -->
  <rect x="72" y="820" width="1128" height="30" fill="#0956E6"/>
  <text x="140" y="840" font-size="11" fill="#FFF" font-family="Inter">SIGAP Malut v1.0 | Kepala Dinas</text>
</svg>