<svg width="1200" height="820" viewBox="0 0 1200 820" xmlns="http://www.w3.org/2000/svg">
  <rect x="0" y="0" width="72" height="820" fill="#06A657"/>
  <rect x="72" y="0" width="1128" height="60" fill="#07723A"/>
  <rect x="88" y="10" width="36" height="36" rx="8" fill="#FFF"/>
  <text x="112" y="34" font-size="10" fill="#07723A" text-anchor="middle">LOGO</text>
  <text x="165" y="38" font-size="20" fill="#FFF" font-family="Inter" font-weight="bold">Ketersediaan</text>
  <circle cx="1150" cy="30" r="18" fill="#FACC15"/>
  <!-- Sidebar menu modul -->
  <rect x="16" y="80" width="40" height="40" rx="8" fill="#f4f4f4"/>
  <text x="36" y="107" font-size="8" fill="#06A657" text-anchor="middle">Dash</text>
  <rect x="16" y="130" width="40" height="40" rx="8" fill="#f4f4f4"/>
  <text x="36" y="157" font-size="8" fill="#06A657" text-anchor="middle">Stok</text>
  <rect x="16" y="180" width="40" height="40" rx="8" fill="#f4f4f4"/>
  <text x="36" y="207" font-size="8" fill="#0B5FFF" text-anchor="middle">Gudang</text>
  <rect x="16" y="230" width="40" height="40" rx="8" fill="#f4f4f4"/>
  <text x="36" y="257" font-size="8" fill="#F59E0B" text-anchor="middle">Produksi</text>
  <rect x="16" y="280" width="40" height="40" rx="8" fill="#f4f4f4"/>
  <text x="36" y="307" font-size="8" fill="#EF4444" text-anchor="middle">Target</text>
  <rect x="16" y="330" width="40" height="40" rx="8" fill="#f4f4f4"/>
  <text x="36" y="357" font-size="8" fill="#0B5FFF" text-anchor="middle">Laporan</text>
  <rect x="16" y="380" width="40" height="40" rx="8" fill="#f4f4f4"/>
  <text x="36" y="407" font-size="8" fill="#06A657" text-anchor="middle">Approve</text>
  <rect x="16" y="430" width="40" height="40" rx="8" fill="#f4f4f4"/>
  <text x="36" y="457" font-size="8" fill="#0B5FFF" text-anchor="middle">Agenda</text>
  <!-- HERO ROW -->
  <rect x="110" y="80" width="160" height="60" rx="12" fill="#fff" stroke="#06A657" stroke-width="2"/>
  <rect x="290" y="80" width="160" height="60" rx="12" fill="#fff" stroke="#0B5FFF" stroke-width="2"/>
  <rect x="470" y="80" width="160" height="60" rx="12" fill="#fff" stroke="#FACC15" stroke-width="2"/>
  <rect x="650" y="80" width="160" height="60" rx="12" fill="#fff" stroke="#EF4444" stroke-width="2"/>
  <rect x="830" y="80" width="160" height="60" rx="12" fill="#fff" stroke="#0B5FFF" stroke-width="2"/>
  <rect x="1010" y="80" width="160" height="60" rx="12" fill="#fff" stroke="#FACC15" stroke-width="2"/>
  <text x="190" y="115" font-size="11" fill="#06A657" text-anchor="middle">Stok Total</text>
  <text x="370" y="115" font-size="11" fill="#0B5FFF" text-anchor="middle">Stok Kritis</text>
  <text x="550" y="115" font-size="11" fill="#FACC15" text-anchor="middle">Produksi Hr.</text>
  <text x="730" y="115" font-size="11" fill="#EF4444" text-anchor="middle">Target Bulan</text>
  <text x="910" y="115" font-size="11" fill="#0B5FFF" text-anchor="middle">Backlog</text>
  <text x="1090" y="115" font-size="11" fill="#FACC15" text-anchor="middle">Approve</text>
  <!-- MAIN PANELS -->
  <rect x="110" y="160" width="520" height="120" rx="12" fill="#fff" stroke="#06A657" stroke-width="2"/>
  <text x="370" y="185" font-size="12" fill="#06A657" text-anchor="middle">Tabel Stok By Komoditas</text>
  <rect x="650" y="160" width="520" height="120" rx="12" fill="#fff" stroke="#0B5FFF" stroke-width="2"/>
  <text x="910" y="185" font-size="12" fill="#0B5FFF" text-anchor="middle">Grafik Tren Stok</text>
  <rect x="110" y="300" width="520" height="100" rx="12" fill="#fff" stroke="#FACC15" stroke-width="2"/>
  <text x="370" y="340" font-size="12" fill="#FACC15" text-anchor="middle">Log Produksi/Mutasi</text>
  <rect x="650" y="300" width="520" height="100" rx="12" fill="#fff" stroke="#EF4444" stroke-width="2"/>
  <text x="910" y="340" font-size="12" fill="#EF4444" text-anchor="middle">Approval Stok</text>
  <rect x="110" y="420" width="1060" height="60" rx="12" fill="#fff" stroke="#FACC15" stroke-width="2"/>
  <text x="640" y="450" font-size="11" fill="#EF4444" text-anchor="middle">Notifikasi Kritis</text>
  <rect x="72" y="790" width="1128" height="30" fill="#07723A"/>
  <text x="140" y="810" font-size="11" fill="#FFF" font-family="Inter">SIGAP Malut v1 | Bidang Ketersediaan</text>
</svg>